<svg width="26" height="27" viewBox="0 0 26 27" fill="none" xmlns="http://www.w3.org/2000/svg">
<path d="M11.9868 20.1483C9.12551 20.1483 6.80631 17.8291 6.80631 14.9678C6.80631 12.1065 9.12551 9.78727 11.9868 9.78727C12.7389 9.78727 13.4519 9.95107 14.0967 10.2397C14.683 9.75282 15.4624 9.13532 16.2846 8.49572C15.0535 7.67672 13.5767 7.19702 11.9868 7.19702C7.69486 7.19702 4.21606 10.6765 4.21606 14.9678C4.21606 19.2591 7.69551 22.7385 11.9868 22.7385C16.2781 22.7385 19.7582 19.2591 19.7582 14.9678C19.7582 13.3181 19.2408 11.7912 18.364 10.5335C17.7393 11.3583 17.1348 12.1409 16.6558 12.7331C16.9808 13.4104 17.168 14.1663 17.168 14.9678C17.168 17.8291 14.8481 20.1483 11.9868 20.1483Z" fill="#E5E5E5"/>
<path d="M11.986 15.4062C11.8625 15.4062 11.7384 15.3594 11.6435 15.2658C11.4524 15.0766 11.4504 14.7679 11.6396 14.5761L13.106 13.0915C13.0254 12.9388 12.9454 12.7529 12.8889 12.5481C12.6068 12.4428 12.3045 12.3772 11.986 12.3772C10.5554 12.3772 9.39575 13.5368 9.39575 14.9674C9.39575 16.3981 10.5554 17.5577 11.986 17.5577C13.4167 17.5577 14.5763 16.3981 14.5763 14.9674C14.5763 14.6236 14.5061 14.2966 14.3845 13.997C14.1635 13.943 13.9633 13.8598 13.7995 13.7766L12.3331 15.2612C12.2382 15.3581 12.1115 15.4062 11.986 15.4062Z" fill="#E5E5E5"/>
<path d="M23.5424 3.91239L24.4342 3.00954C24.6234 2.81844 24.6214 2.50904 24.4303 2.31989C24.2379 2.13074 23.9292 2.13204 23.7407 2.32444L22.8489 3.22729C22.9496 3.54514 22.9971 3.77069 22.9971 3.77069C22.9971 3.77069 23.2226 3.81554 23.5418 3.91239H23.5424Z" fill="#243D55"/>
<path d="M11.6397 14.5762C11.4505 14.7673 11.4525 15.0767 11.6436 15.2659C11.7385 15.3595 11.8626 15.4063 11.9861 15.4063C12.1116 15.4063 12.2377 15.3582 12.3326 15.2613L13.799 13.7767C13.5396 13.6448 13.3726 13.5154 13.3726 13.5154C13.3726 13.5154 13.2413 13.3497 13.1061 13.0923L11.6397 14.5762Z" fill="#243D55"/>
<path d="M20.0396 8.28962C20.0201 8.31562 20.0006 8.34812 19.9811 8.37412C19.4806 9.04362 18.9216 9.79762 18.3626 10.5321C17.7386 11.3576 17.1341 12.1376 16.6531 12.7356C16.3411 13.1191 16.0811 13.4311 15.9121 13.6001C15.4311 14.0876 14.8591 14.1136 14.3846 13.9966C14.1636 13.9446 13.9621 13.8601 13.7996 13.7756C13.5396 13.6456 13.3706 13.5156 13.3706 13.5156C13.3706 13.5156 13.2406 13.3466 13.1041 13.0931C13.0261 12.9371 12.9481 12.7551 12.8896 12.5471C12.7531 12.0661 12.7596 11.4811 13.2536 10.9806C13.4226 10.8116 13.7216 10.5516 14.0986 10.2396C14.6836 9.75212 15.4636 9.13462 16.2826 8.49762C17.0106 7.93212 17.7581 7.36012 18.4211 6.85312C18.4536 6.82712 18.4861 6.80762 18.5186 6.78162C18.6941 7.45762 18.9151 7.90612 18.9151 7.90612C18.9151 7.90612 19.3636 8.12062 20.0396 8.28962Z" fill="#313131"/>
<path d="M18.9137 7.90553L22.9983 3.77023C22.9983 3.77023 22.9509 3.54533 22.8501 3.22683C22.5043 2.13873 21.5248 -0.0472189 19.6125 1.88848C18.0154 3.50503 18.1922 5.54083 18.5159 6.78168C18.6934 7.46028 18.9137 7.90553 18.9137 7.90553Z" fill="#B5BAEB"/>
<path d="M19.7573 14.9673C19.7573 19.2593 16.2779 22.7381 11.9859 22.7381C7.69397 22.7381 4.21517 19.2586 4.21517 14.9673C4.21517 10.676 7.69462 7.19657 11.9859 7.19657C13.5758 7.19657 15.0526 7.67627 16.2837 8.49527C17.0085 7.93237 17.7566 7.35907 18.4196 6.85467C16.6516 5.45067 14.4189 4.60632 11.9859 4.60632C6.26332 4.60632 1.62427 9.24537 1.62427 14.968C1.62427 20.6906 6.26332 25.3296 11.9859 25.3296C17.7085 25.3296 22.3476 20.6906 22.3476 14.968C22.3476 12.4629 21.4584 10.1658 19.979 8.37437C19.483 9.04387 18.9182 9.79982 18.3624 10.533C19.2393 11.7914 19.7573 13.3176 19.7573 14.9673Z" fill="#5E69D4"/>
<path d="M11.9867 17.5581C10.556 17.5581 9.3964 16.3985 9.3964 14.9679C9.3964 13.5372 10.556 12.3776 11.9867 12.3776C12.3058 12.3776 12.6074 12.4433 12.8895 12.5486C12.7563 12.0656 12.7608 11.4806 13.2561 10.9795C13.4219 10.8111 13.7235 10.5498 14.0966 10.2398C13.4518 9.95115 12.7387 9.78735 11.9867 9.78735C9.12535 9.78735 6.80615 12.1066 6.80615 14.9679C6.80615 17.8292 9.12535 20.1484 11.9867 20.1484C14.848 20.1484 17.1672 17.8292 17.1672 14.9679C17.1672 14.1664 16.98 13.4105 16.655 12.7332C16.3423 13.1193 16.0791 13.4306 15.9107 13.6009C15.4291 14.0884 14.8616 14.1131 14.3852 13.9968C14.5067 14.2971 14.5769 14.6234 14.5769 14.9672C14.5769 16.3979 13.4173 17.5575 11.9867 17.5575V17.5581Z" fill="#5E69D4"/>
<path d="M18.9137 7.90569C18.9137 7.90569 19.3609 8.12084 20.0421 8.28984C21.2869 8.59859 23.324 8.75004 24.921 7.13284C26.8333 5.19714 24.635 4.24424 23.5424 3.91209C23.2232 3.81524 22.9977 3.77039 22.9977 3.77039L18.9137 7.90569Z" fill="#5E69D4"/>
</svg>
