<svg width="28" height="28" viewBox="0 0 28 28" fill="none" xmlns="http://www.w3.org/2000/svg">
<g clip-path="url(#clip0_3440_9545)">
<path d="M25.4261 12.5018L4.62793 17.5557V15.5112L25.4261 10.4573V12.5018Z" fill="#5E69D4"/>
<path d="M16.8487 4.97207L4.92028 16.9005C4.50991 17.3108 4.50991 17.9762 4.92028 18.3865L11.724 25.1903C12.1344 25.6006 12.7997 25.6006 13.2101 25.1903L25.1385 13.2619C25.5488 12.8515 25.5489 12.1862 25.1385 11.7758L18.3347 4.97207C17.9244 4.56171 17.259 4.56171 16.8487 4.97207Z" fill="#5E69D4"/>
<path d="M16.8487 2.80758L4.92028 14.736C4.50991 15.1463 4.50991 15.8117 4.92028 16.222L11.724 23.0258C12.1344 23.4362 12.7997 23.4362 13.2101 23.0258L25.1385 11.0974C25.5488 10.687 25.5488 10.0217 25.1385 9.61134L18.3347 2.80758C17.9244 2.39722 17.259 2.39722 16.8487 2.80758Z" fill="url(#paint0_linear_3440_9545)"/>
<path d="M12.2522 7.40382L9.51636 10.1397L17.8062 18.4295L20.5421 15.6936L12.2522 7.40382Z" fill="#979EEB"/>
<path d="M24.8021 18.4496V25.1896C24.8021 25.3385 24.6813 25.4587 24.533 25.4587C23.5143 25.4587 22.688 24.633 22.688 23.6137V18.4496H24.8021Z" fill="white"/>
<path d="M19.4738 18.4495V23.2677C19.4738 23.4115 19.357 23.5283 19.2132 23.5283C18.2274 23.5283 17.428 22.7289 17.428 21.743V18.4495H19.4738Z" fill="white"/>
<path d="M24.802 18.45V20.9894H17.428V18.45C17.428 16.4134 19.0787 14.7627 21.1153 14.7627C23.1519 14.7627 24.802 16.4134 24.802 18.45Z" fill="white"/>
<path d="M21.1147 17.8708C21.6989 17.8708 22.1728 18.3447 22.1728 18.9289V24.6659C22.1728 24.8149 22.052 24.935 21.9037 24.935C20.8844 24.935 20.0574 24.1087 20.0574 23.0887V18.9282C20.0574 18.3441 20.5313 17.8702 21.1154 17.8702L21.1147 17.8708Z" fill="white"/>
<path d="M9.5623 3.21198H2.82232C2.67333 3.21198 2.55322 3.33274 2.55322 3.48108C2.55322 4.49972 3.3789 5.32605 4.3982 5.32605H9.5623V3.21198Z" fill="white"/>
<path d="M9.56266 8.53979H4.74445C4.60072 8.53979 4.48389 8.65662 4.48389 8.80036C4.48389 9.78619 5.28331 10.5856 6.26914 10.5856H9.56266V8.53979Z" fill="white"/>
<path d="M9.5616 3.21104H7.02222V10.585H9.5616C11.5982 10.585 13.2489 8.93434 13.2489 6.89772C13.2489 4.86109 11.5982 3.21104 9.5616 3.21104Z" fill="white"/>
<path d="M10.1421 6.89683C10.1421 6.31269 9.66821 5.83881 9.08406 5.83881H3.34698C3.19799 5.83881 3.07788 5.95957 3.07788 6.10791C3.07788 7.1272 3.90421 7.9542 4.92417 7.9542H9.08472C9.66886 7.9542 10.1427 7.48032 10.1427 6.89617L10.1421 6.89683Z" fill="white"/>
</g>
<defs>
<linearGradient id="paint0_linear_3440_9545" x1="26.1168" y1="1.88329" x2="11.4753" y2="16.5248" gradientUnits="userSpaceOnUse">
<stop offset="0.3" stop-color="#F4F4F5"/>
<stop offset="1" stop-color="#B5BAEB"/>
</linearGradient>
<clipPath id="clip0_3440_9545">
<rect width="26.2537" height="26.2537" fill="white" transform="translate(0.873047 0.873169)"/>
</clipPath>
</defs>
</svg>
